# xmcd
#
# Track frame offsets:
#	150
#	20218
#	38343
#	60251
#	76879
#	99497
#	119669
#	137611
#	154405
#	170929
#	184414
#	202878
#	222796
#	240562
#	260187
#
# Disc length: 3756 seconds
#
# Revision: 2
# Processed by: cddbd v1.5.2PL0 Copyright (c) Steve Scherf et al.
# Submitted via: audiograbber 1.83.01
#
DISCID=d50eaa0f
DTITLE=Chartbuster Pro Country Monthly: Feb., 2007 - CB60360
DYEAR=2007
DGENRE=Karaoke
TTITLE0=Jackson, Alan - Woman's Love, A
TTITLE1=Urban, Keith - Stupid Boy
TTITLE2=Underwood, Carrie - Wasted
TTITLE3=Church, Eric - Two Pink Lines
TTITLE4=Emerson Drive - Moments
TTITLE5=Evans, Sara - Missing Missouri
TTITLE6=Ingram, Jack - Lips Of An Angel
TTITLE7=Holy, Steve - Come On Rain
TTITLE8=Dalley, Amy - Everybody's Got A Vice
TTITLE9=Larsen, Blaine - Spoken Like A Man
TTITLE10=Harris, Rushlow - That's So You
TTITLE11=Osborse, Joan - Who Divided
TTITLE12=Carolina Rain - Isn't She
TTITLE13=Bryan, Luke - All My Friends Say
TTITLE14=Malo, Raul and Martina McBride - Feels Like Home
EXTD=
EXTT0=
EXTT1=
EXTT2=
EXTT3=
EXTT4=
EXTT5=
EXTT6=
EXTT7=
EXTT8=
EXTT9=
EXTT10=
EXTT11=
EXTT12=
EXTT13=
EXTT14=
PLAYORDER=
